
        <svg xmlns="http://www.w3.org/2000/svg" xmlns:xlink="http://www.w3.org/1999/xlink" version="1.1" width="3142.18009478673" 
        height="568.7203791469194" viewBox="0 0 3142.18009478673 568.7203791469194">
			
			<g transform="scale(7.109004739336493) translate(10, 10)">
				<defs id="SvgjsDefs1001"></defs><g id="SvgjsG1007" featureKey="rootContainer" transform="matrix(1,0,0,1,0,0)" fill="#1e2b65"><rect width="422" height="60" rx="8"></rect></g><g id="SvgjsG1008" featureKey="nameLeftFeature-0" transform="matrix(1.246944785118103,0,0,1.246944785118103,19.224125840697706,13.651456154635408)" fill="#fdfdfd"><path d="M7.6242 20.072402 l-0.377988 -0.000176 l-5.1214 -12.3098 l0 11.4478 c0 0.249004 0.184805 0.478008 0.482012 0.478008 l0.518008 0 c0.093203 0 0.158008 0.064805 0.158008 0.158008 c0 0.089004 -0.064805 0.153809 -0.158008 0.153809 l-2.3448 0 c-0.093008 0 -0.157812 -0.064805 -0.157812 -0.153809 c0 -0.093203 0.064805 -0.158008 0.157812 -0.158008 l0.518008 0 c0.297208 0 0.482012 -0.229004 0.482012 -0.478008 l0 -11.6006 c0 -0.249004 -0.184805 -0.478008 -0.482012 -0.478008 l-0.518008 0 c-0.093008 0 -0.157812 -0.064805 -0.157812 -0.157812 c0 -0.089004 0.064805 -0.153809 0.157812 -0.153809 l2.782 0 l4.572 10.9892 l4.2818 -10.9892 l2.74 0 c0.093008 0 0.157812 0.064805 0.157812 0.158008 c0 0.089004 -0.064805 0.153809 -0.157812 0.153809 l-0.518008 0 c-0.297208 0 -0.482012 0.229004 -0.482012 0.478008 l0 11.6006 c0 0.249004 0.184805 0.478008 0.482012 0.478008 l0.518008 0 c0.093008 0 0.157812 0.064805 0.157812 0.153809 c0 0.093203 -0.064805 0.158008 -0.157812 0.158008 l-3.7028 0 c-0.093203 0 -0.158008 -0.064805 -0.158008 -0.158008 c0 -0.089004 0.064805 -0.153809 0.158008 -0.153809 l0.518008 0 c0.295196 0 0.47959 -0.225606 0.481992 -0.473008 l0 -11.5614 z M23.0344 6.6952 c3.7924 0 5.998 2.8256 5.998 6.6456 s-2.2056 6.7882 -5.998 6.7882 c-3.7966 0 -5.998 -2.9682 -5.998 -6.7882 s2.2014 -6.6456 5.998 -6.6456 z M23.0344 19.785586 c3.0958 0 4.1888 -3.0848 4.1888 -6.4448 s-1.093008 -6.302 -4.1888 -6.302 s-4.1888 2.942 -4.1888 6.302 s1.093008 6.4448 4.1888 6.4448 z M41.8614 6.82 c0.093203 0 0.158027 0.064453 0.158027 0.153457 c0 0.093008 -0.064805 0.157812 -0.157812 0.157812 l-0.518008 0 c-0.297208 0 -0.482012 0.229004 -0.482012 0.478008 l0 12.3904 l-0.791796 0 l-7.8248 -11.482 l0 10.6924 c0 0.249004 0.184805 0.478008 0.482012 0.478008 l0.518008 0 c0.093203 0 0.158008 0.064805 0.158008 0.158008 c0 0.089004 -0.064805 0.153809 -0.158008 0.153809 l-2.3448 0 c-0.093008 0 -0.157812 -0.064805 -0.157812 -0.153809 c0 -0.093203 0.064805 -0.158008 0.157812 -0.158008 l0.518008 0 c0.297208 0 0.482012 -0.229004 0.482012 -0.478008 l0 -11.6006 c0 -0.249004 -0.184805 -0.478008 -0.482012 -0.478008 l-0.518008 0 c-0.093008 0 -0.157812 -0.064805 -0.157812 -0.157812 c0 -0.089004 0.064805 -0.153809 0.157812 -0.153809 l2.1806 0 l7.4358 10.9078 l0 -10.118 c0 -0.249004 -0.184805 -0.478008 -0.482012 -0.478008 l-0.518008 0 c-0.093203 0 -0.158008 -0.064805 -0.158008 -0.157812 c0 -0.089004 0.064805 -0.153809 0.158008 -0.153809 l2.3448 0 z M50.2642 20.072402 l-0.377988 -0.000176 l-5.1214 -12.3098 l0 11.4478 c0 0.249004 0.184805 0.478008 0.482012 0.478008 l0.518008 0 c0.093203 0 0.158008 0.064805 0.158008 0.158008 c0 0.089004 -0.064805 0.153809 -0.158008 0.153809 l-2.3448 0 c-0.093008 0 -0.157812 -0.064805 -0.157812 -0.153809 c0 -0.093203 0.064805 -0.158008 0.157812 -0.158008 l0.518008 0 c0.297208 0 0.482012 -0.229004 0.482012 -0.478008 l0 -11.6006 c0 -0.249004 -0.184805 -0.478008 -0.482012 -0.478008 l-0.518008 0 c-0.093008 0 -0.157812 -0.064805 -0.157812 -0.157812 c0 -0.089004 0.064805 -0.153809 0.157812 -0.153809 l2.782 0 l4.572 10.9892 l4.2818 -10.9892 l2.74 0 c0.093008 0 0.157812 0.064805 0.157812 0.158008 c0 0.089004 -0.064805 0.153809 -0.157812 0.153809 l-0.518008 0 c-0.297208 0 -0.482012 0.229004 -0.482012 0.478008 l0 11.6006 c0 0.249004 0.184805 0.478008 0.482012 0.478008 l0.518008 0 c0.093008 0 0.157812 0.064805 0.157812 0.153809 c0 0.093203 -0.064805 0.158008 -0.157812 0.158008 l-3.7028 0 c-0.093203 0 -0.158008 -0.064805 -0.158008 -0.158008 c0 -0.089004 0.064805 -0.153809 0.158008 -0.153809 l0.518008 0 c0.295196 0 0.47959 -0.225606 0.481992 -0.473008 l0 -11.5614 z M65.6744 6.6952 c3.7924 0 5.998 2.8256 5.998 6.6456 s-2.2056 6.7882 -5.998 6.7882 c-3.7966 0 -5.998 -2.9682 -5.998 -6.7882 s2.2014 -6.6456 5.998 -6.6456 z M65.6744 19.785586 c3.0958 0 4.1888 -3.0848 4.1888 -6.4448 s-1.093008 -6.302 -4.1888 -6.302 s-4.1888 2.942 -4.1888 6.302 s1.093008 6.4448 4.1888 6.4448 z M84.8944 6.82 c0.093203 0 0.158086 0.064844 0.158086 0.153848 c0 0.093008 -0.064805 0.157812 -0.158008 0.157812 l-0.518008 0 c-0.297208 0 -0.482012 0.229004 -0.482012 0.478008 l0 7.6876 c0 3.5856 -2.1406 4.8318 -4.6296 4.8318 c-2.0366 0 -4.7248 -0.878008 -4.7248 -4.89522 l0 -7.6242 c0 -0.249004 -0.184805 -0.478008 -0.482012 -0.478008 l-0.518008 0 c-0.093008 0 -0.157812 -0.064805 -0.157812 -0.153809 c0 -0.093203 0.064805 -0.158008 0.157812 -0.158008 l3.7028 0 c0.093008 0 0.157812 0.064805 0.157812 0.158008 c0 0.089004 -0.064805 0.153809 -0.157812 0.153809 l-0.518008 0 c-0.297208 0 -0.482012 0.229004 -0.482012 0.478008 l0 7.9076 c0 3.1476 1.553808 4.14958 3.43862 4.14958 c2.0592 0 3.8682 -1.188204 3.8682 -4.324 l0 -7.7332 c0 -0.249004 -0.184805 -0.478008 -0.482012 -0.478008 l-0.518008 0 c-0.093008 0 -0.157812 -0.064805 -0.157812 -0.157812 c0 -0.089004 0.064805 -0.153809 0.157812 -0.153809 l2.3448 0 z M96.282 6.82 l-0.000195 3.4846 c0 0.093203 -0.064805 0.158008 -0.158008 0.158008 c-0.089004 0 -0.153809 -0.064805 -0.153809 -0.158008 l0 -0.80961 c0 -1.38 -0.82 -2.3634 -2.46 -2.3634 l-1.006992 0 c-0.290606 0 -0.48121 0.219004 -0.48121 0.461796 l0 11.6314 c0 0.243594 0.189805 0.463594 0.48121 0.463594 l0.518008 0 c0.093203 0 0.158008 0.064805 0.158008 0.153809 c0 0.093203 -0.064805 0.158008 -0.158008 0.158008 l-3.702 0 c-0.093008 0 -0.157812 -0.064805 -0.157812 -0.158008 c0 -0.089004 0.064805 -0.153809 0.157812 -0.153809 l0.518008 0 c0.290606 0 0.48121 -0.217792 0.48121 -0.461796 l0 -11.6314 c0 -0.244394 -0.189805 -0.463398 -0.48121 -0.463398 l-0.689004 0 c-1.798594 0 -2.77718 0.824804 -2.77718 2.6806 l0 0.492402 c0 0.093203 -0.064805 0.158008 -0.157812 0.158008 c-0.089004 0 -0.153809 -0.064805 -0.153809 -0.158008 l0 -3.4848 l10.2228 0 z M109.5842 19.688204 c0.093203 0 0.157617 0.064609 0.157617 0.153613 c0 0.093203 -0.064805 0.158008 -0.157812 0.158008 l-3.702 0 c-0.093008 0 -0.157812 -0.064805 -0.157812 -0.158008 c0 -0.089004 0.064805 -0.153809 0.158008 -0.153809 l0.518008 0 c0.290606 0 0.48121 -0.217792 0.48121 -0.461796 l0 -6.0362 l-6.7378 0 l0 6.0344 c0 0.243594 0.189805 0.463594 0.48121 0.463594 l0.518008 0 c0.093008 0 0.157812 0.064805 0.157812 0.153809 c0 0.093203 -0.064805 0.158008 -0.157812 0.158008 l-3.702 0 c-0.093008 0 -0.157812 -0.064805 -0.157812 -0.158008 c0 -0.089004 0.064805 -0.153809 0.157812 -0.153809 l0.518008 0 c0.290606 0 0.48121 -0.217792 0.48121 -0.461796 l0 -11.6314 c0 -0.244394 -0.189805 -0.463398 -0.48121 -0.463398 l-0.518008 0 c-0.093008 0 -0.157812 -0.064805 -0.157812 -0.153809 c0 -0.093203 0.064805 -0.158008 0.157812 -0.158008 l3.702 0 c0.093008 0 0.157812 0.064805 0.157812 0.158008 c0 0.089004 -0.064805 0.153809 -0.157812 0.153809 l-0.518008 0 c-0.290606 0 -0.48121 0.219004 -0.48121 0.461796 l0 5.285 l6.7378 0 l0 -5.2834 c0 -0.244394 -0.189805 -0.463398 -0.48121 -0.463398 l-0.518008 0 c-0.093008 0 -0.157812 -0.064805 -0.157812 -0.153809 c0 -0.093203 0.064805 -0.158008 0.157812 -0.158008 l3.702 0 c0.093008 0 0.157812 0.064805 0.157812 0.158008 c0 0.089004 -0.064805 0.153809 -0.157812 0.153809 l-0.518008 0 c-0.290606 0 -0.48121 0.219004 -0.48121 0.461796 l0 11.6314 c0 0.243594 0.189805 0.463594 0.48121 0.463594 l0.518008 0 z M122.6242 20.072402 l-0.377988 -0.000176 l-5.1214 -12.3098 l0 11.4478 c0 0.249004 0.184805 0.478008 0.482012 0.478008 l0.518008 0 c0.093203 0 0.158008 0.064805 0.158008 0.158008 c0 0.089004 -0.064805 0.153809 -0.158008 0.153809 l-2.3448 0 c-0.093008 0 -0.157812 -0.064805 -0.157812 -0.153809 c0 -0.093203 0.064805 -0.158008 0.157812 -0.158008 l0.518008 0 c0.297208 0 0.482012 -0.229004 0.482012 -0.478008 l0 -11.6006 c0 -0.249004 -0.184805 -0.478008 -0.482012 -0.478008 l-0.518008 0 c-0.093008 0 -0.157812 -0.064805 -0.157812 -0.157812 c0 -0.089004 0.064805 -0.153809 0.157812 -0.153809 l2.782 0 l4.572 10.9892 l4.2818 -10.9892 l2.74 0 c0.093008 0 0.157812 0.064805 0.157812 0.158008 c0 0.089004 -0.064805 0.153809 -0.157812 0.153809 l-0.518008 0 c-0.297208 0 -0.482012 0.229004 -0.482012 0.478008 l0 11.6006 c0 0.249004 0.184805 0.478008 0.482012 0.478008 l0.518008 0 c0.093008 0 0.157812 0.064805 0.157812 0.153809 c0 0.093203 -0.064805 0.158008 -0.157812 0.158008 l-3.7028 0 c-0.093203 0 -0.158008 -0.064805 -0.158008 -0.158008 c0 -0.089004 0.064805 -0.153809 0.158008 -0.153809 l0.518008 0 c0.295196 0 0.47959 -0.225606 0.481992 -0.473008 l0 -11.5614 z M143.849 19.688204 c0.089004 0 0.157617 0.064805 0.157617 0.158008 c0 0.089004 -0.069004 0.153809 -0.158008 0.153809 l-4.5034 0 c-0.089004 0 -0.158008 -0.064805 -0.158008 -0.153809 c0 -0.093203 0.069004 -0.158008 0.158008 -0.158008 l0.72 0 c0.401992 0 0.627382 -0.303008 0.47998 -0.7 l-1.239004 -3.249 l-5.1044 0 l-1.2558 3.249 c-0.14 0.361602 0.080391 0.7 0.48 0.7 l0.72 0 c0.089004 0 0.158008 0.064805 0.158008 0.158008 c0 0.089004 -0.069004 0.153809 -0.158008 0.153809 l-2.9606 0 c-0.089004 0 -0.158008 -0.064805 -0.158008 -0.153809 c0 -0.093203 0.069004 -0.158008 0.158008 -0.158008 l0.48 0 c0.52 0 0.7558 -0.26 0.92 -0.7 l4.7614 -12.2408 l0.378008 0 l4.7042 12.2608 c0.144199 0.36 0.42 0.68 0.98 0.68 l0.44 0 z M134.32682 15.4316 l4.8658 0 l-2.4148 -6.332 z M149.3496 6.82 c4.167 0 7.35718 1.66043 7.35718 6.50042 c0 3.8 -2.831 6.68 -7.35798 6.68 l-4.4688 0 c-0.093008 0 -0.157812 -0.064805 -0.157812 -0.158008 c0 -0.089004 0.064805 -0.153809 0.157812 -0.153809 l0.518008 0 c0.290606 0 0.48121 -0.219004 0.48121 -0.461796 l0 -11.6314 c0 -0.243594 -0.189805 -0.463594 -0.48121 -0.463594 l-0.518008 0 c-0.093008 0 -0.157812 -0.064805 -0.157812 -0.153809 c0 -0.093203 0.064805 -0.158008 0.157812 -0.158008 l4.4696 0 z M149.3488 19.688632 c2.8572 0 5.5498 -2.2286 5.5498 -6.3686 c0 -4.18 -2.4718 -6.1882 -5.549 -6.1882 l-1.285606 0 c-0.290606 0 -0.48121 0.219004 -0.48121 0.461796 l0 11.6314 c0 0.243594 0.189805 0.463594 0.48121 0.463594 l1.284804 0 z M167.429 16.3572 c0.089004 0 0.154004 0.065234 0.154004 0.158438 l0 3.4848 l-9.002 0 c-0.093008 0 -0.157812 -0.064805 -0.157812 -0.158008 c0 -0.089004 0.064805 -0.153809 0.157812 -0.153809 l0.518008 0 c0.290606 0 0.48121 -0.219004 0.48121 -0.461796 l0 -11.6314 c0 -0.243594 -0.189805 -0.463594 -0.48121 -0.463594 l-0.518008 0 c-0.093008 0 -0.157812 -0.064805 -0.157812 -0.153809 c0 -0.093203 0.064805 -0.158008 0.157812 -0.158008 l8.9234 0 l0 3.4848 c0 0.093203 -0.064805 0.158008 -0.157812 0.158008 c-0.089004 0 -0.153809 -0.064805 -0.153809 -0.158008 l0 -0.80961 c0 -1.38 -0.82 -2.3634 -2.46 -2.3634 l-2.9678 0 c-0.290606 0 -0.48121 0.217792 -0.48121 0.461796 l0 5.3726 l1.587792 0 c1.63039 0 1.810996 -0.567598 1.810996 -1.4958 l0 -0.182793 c0 -0.089004 0.069004 -0.158008 0.158008 -0.158008 s0.158008 0.069004 0.158008 0.158008 l0 3.6772 c0 0.089004 -0.069004 0.158008 -0.158008 0.158008 s-0.158008 -0.064805 -0.158008 -0.17041 l0 -0.198594 c0 -0.891796 -0.172402 -1.467598 -1.810996 -1.467598 l-1.587792 0 l0 5.9386 c0 0.244394 0.189805 0.463398 0.48121 0.463398 l3.0462 0 c1.64 0 2.46 -0.983398 2.46 -2.3634 l0 -0.80961 c0 -0.093203 0.064805 -0.158008 0.157812 -0.158008 z"></path></g><g id="SvgjsG1009" featureKey="inlineSymbolFeature-0" transform="matrix(0.4863278269767761,0,0,0.4863278269767761,246.05468870964197,14.513672177410493)" fill="#fdfdfd"><title xmlns="http://www.w3.org/2000/svg">MAHJONG,table games,board game,gaming,entertainment</title><g xmlns="http://www.w3.org/2000/svg" data-name="Layer 7"><path d="M60,27V7a6,6,0,0,0-6-6H46a6,6,0,0,0-5,2.69A6,6,0,0,0,36,1H28a6,6,0,0,0-5,2.69A6,6,0,0,0,18,1H10A6,6,0,0,0,4,7V27a6,6,0,0,0,2.69,5A6,6,0,0,0,4,37V57a6,6,0,0,0,6,6h8a6,6,0,0,0,5-2.69A6,6,0,0,0,28,63h8a6,6,0,0,0,5-2.69A6,6,0,0,0,46,63h8a6,6,0,0,0,6-6V37a6,6,0,0,0-2.69-5A6,6,0,0,0,60,27ZM28,3h8a4,4,0,0,1,4,4V27a4,4,0,0,1-4,4H28a4,4,0,0,1-4-4V7A4,4,0,0,1,28,3ZM42.69,32A5.91,5.91,0,0,0,41,33.69,5.91,5.91,0,0,0,39.31,32,5.91,5.91,0,0,0,41,30.31,5.91,5.91,0,0,0,42.69,32ZM23,33.69A5.91,5.91,0,0,0,21.31,32,5.91,5.91,0,0,0,23,30.31,5.91,5.91,0,0,0,24.69,32,5.91,5.91,0,0,0,23,33.69ZM6,27V7a4,4,0,0,1,4-4h8a4,4,0,0,1,4,4V27a4,4,0,0,1-4,4H10A4,4,0,0,1,6,27ZM18,61H10a4,4,0,0,1-4-4V37a4,4,0,0,1,4-4h8a4,4,0,0,1,4,4V57A4,4,0,0,1,18,61Zm18,0H28a4,4,0,0,1-4-4V37a4,4,0,0,1,4-4h8a4,4,0,0,1,4,4V57A4,4,0,0,1,36,61ZM58,37V57a4,4,0,0,1-4,4H46a4,4,0,0,1-4-4V37a4,4,0,0,1,4-4h8A4,4,0,0,1,58,37Zm0-10a4,4,0,0,1-4,4H46a4,4,0,0,1-4-4V7a4,4,0,0,1,4-4h8a4,4,0,0,1,4,4Z"></path><rect x="13" y="11" width="2" height="2"></rect><path d="M32,23a6,6,0,1,0-6-6A6,6,0,0,0,32,23Zm0-10a4,4,0,1,1-4,4A4,4,0,0,1,32,13Z"></path><rect x="31" y="16" width="2" height="2"></rect><path d="M20,22a6,6,0,0,0-2.69-5,6,6,0,1,0-6.62,0A6,6,0,1,0,20,22ZM10,12a4,4,0,1,1,4,4A4,4,0,0,1,10,12Zm4,14a4,4,0,1,1,4-4A4,4,0,0,1,14,26Z"></path><rect x="13" y="21" width="2" height="2"></rect><path d="M55,12H51V10H49v2H45a1,1,0,0,0-1,1v4a1,1,0,0,0,.8,1l4.2.84V24h2V19.22l3.8.76.2,0a1,1,0,0,0,1-1V13A1,1,0,0,0,55,12Zm-9,4.18V14h3v2.78Zm8,1.6-3-.6V14h3Z"></path><path d="M19,41H15V40h2V38H15V36H13v2H11v2h2v1H9a1,1,0,0,0-1,1v6a1,1,0,0,0,1,1h4a3,3,0,0,1-3,3v2a4.92,4.92,0,0,0,3-1v3.16l-1.45-1-1.1,1.66,3,2A1,1,0,0,0,15,58V53a4.92,4.92,0,0,0,3,1V52a3,3,0,0,1-3-3h4a1,1,0,0,0,1-1V42A1,1,0,0,0,19,41Zm-9,6V43h3v4Zm8,0H15V43h3Z"></path><path d="M32,41a3,3,0,1,0-3,3A3,3,0,0,0,32,41Zm-3,1a1,1,0,1,1,1-1A1,1,0,0,1,29,42Z"></path><path d="M38,41a3,3,0,1,0-3,3A3,3,0,0,0,38,41Zm-3,1a1,1,0,1,1,1-1A1,1,0,0,1,35,42Z"></path><path d="M32,47a3,3,0,1,0,3-3A3,3,0,0,0,32,47Zm3-1a1,1,0,1,1-1,1A1,1,0,0,1,35,46Z"></path><path d="M32,53a3,3,0,1,0,3-3A3,3,0,0,0,32,53Zm3-1a1,1,0,1,1-1,1A1,1,0,0,1,35,52Z"></path><path d="M32,47a3,3,0,1,0-3,3A3,3,0,0,0,32,47Zm-3,1a1,1,0,1,1,1-1A1,1,0,0,1,29,48Z"></path><path d="M29,50a3,3,0,1,0,3,3A3,3,0,0,0,29,50Zm0,4a1,1,0,1,1,1-1A1,1,0,0,1,29,54Z"></path><path d="M50,44a3,3,0,1,0-3,3A3,3,0,0,0,50,44Zm-3,1a1,1,0,1,1,1-1A1,1,0,0,1,47,45Z"></path><path d="M50,44a3,3,0,1,0,3-3A3,3,0,0,0,50,44Zm3-1a1,1,0,1,1-1,1A1,1,0,0,1,53,43Z"></path><path d="M44,38a3,3,0,1,0,3-3A3,3,0,0,0,44,38Zm3-1a1,1,0,1,1-1,1A1,1,0,0,1,47,37Z"></path><path d="M53,41a3,3,0,1,0-3-3A3,3,0,0,0,53,41Zm0-4a1,1,0,1,1-1,1A1,1,0,0,1,53,37Z"></path><path d="M50,50a3,3,0,1,0,3-3A3,3,0,0,0,50,50Zm3-1a1,1,0,1,1-1,1A1,1,0,0,1,53,49Z"></path><path d="M50,56a3,3,0,1,0,3-3A3,3,0,0,0,50,56Zm3-1a1,1,0,1,1-1,1A1,1,0,0,1,53,55Z"></path><path d="M50,50a3,3,0,1,0-3,3A3,3,0,0,0,50,50Zm-3,1a1,1,0,1,1,1-1A1,1,0,0,1,47,51Z"></path><path d="M47,53a3,3,0,1,0,3,3A3,3,0,0,0,47,53Zm0,4a1,1,0,1,1,1-1A1,1,0,0,1,47,57Z"></path></g></g><g id="SvgjsG1010" featureKey="nameRightFeature-0" transform="matrix(1.0102142095565796,0,0,1.0102142095565796,294.58891383733186,17.266581490660833)" fill="#fdfdfd"><path d="M14.560547 19.638672 c-0.013018 0.05208 -0.0179 0.102673 -0.014648 0.151501 s0 0.083008 -0.009766 0.102539 s-0.03418 0.014648 -0.073242 -0.014648 s-0.107422 -0.096025 -0.205078 -0.200195 l-0.253906 -0.078125 l-0.107422 0.107422 c-0.019531 0.019531 -0.039062 0.03581 -0.058594 0.048828 c-0.05208 0.045576 -0.099277 0.050459 -0.141592 0.014648 s-0.096025 -0.079756 -0.161133 -0.131836 c-0.05208 -0.045576 -0.089512 -0.074873 -0.112295 -0.087891 s-0.035801 -0.014648 -0.039053 -0.004883 s-0.003252 0.032549 0 0.068359 s0.001621 0.076504 -0.004892 0.12208 c0 0.019531 -0.016279 0.053711 -0.048828 0.102539 s-0.048828 0.083008 -0.048828 0.102539 c-0.013018 0.058594 -0.032549 0.078125 -0.058594 0.058594 s-0.05209 -0.026045 -0.078135 -0.019531 c-0.013018 0 -0.032549 -0.006514 -0.058594 -0.019531 c-0.019531 -0.013018 -0.043945 -0.032549 -0.073242 -0.058594 s-0.060225 -0.068359 -0.092773 -0.126953 c-0.026045 -0.065107 -0.048828 -0.118818 -0.068359 -0.161133 s-0.039062 -0.08626 -0.058594 -0.131836 s-0.040693 -0.100918 -0.063477 -0.166025 s-0.047197 -0.149746 -0.073242 -0.253916 c-0.019531 -0.10417 -0.045576 -0.29623 -0.078125 -0.576182 s-0.068359 -0.616865 -0.107422 -1.010742 s-0.083008 -0.834961 -0.131836 -1.323242 s-0.097656 -0.999346 -0.146484 -1.533203 s-0.099287 -1.07585 -0.151367 -1.625977 s-0.100908 -1.083984 -0.146484 -1.601562 s-0.087891 -1.00749 -0.126953 -1.469727 s-0.074873 -0.869141 -0.107422 -1.220703 l-4.003906 9.980469 c-0.078125 0.188799 -0.169268 0.359697 -0.273437 0.512695 s-0.209961 0.276699 -0.317383 0.371104 s-0.211592 0.157881 -0.3125 0.19043 s-0.183916 0.026035 -0.249023 -0.019541 c-0.097656 -0.065107 -0.177412 -0.144863 -0.239258 -0.239268 s-0.113926 -0.195312 -0.15624 -0.302734 s-0.079746 -0.219727 -0.112295 -0.336914 s-0.071611 -0.237627 -0.117187 -0.361328 c-0.065107 -0.188799 -0.148115 -0.491533 -0.249023 -0.908203 s-0.216465 -0.90332 -0.34667 -1.459961 s-0.266924 -1.165361 -0.410156 -1.826172 s-0.289717 -1.331387 -0.439453 -2.011729 s-0.29459 -1.347656 -0.434561 -2.001953 s-0.271807 -1.258135 -0.395508 -1.811523 c-0.032549 0.227861 -0.084629 0.558262 -0.15624 0.991201 s-0.154619 0.927734 -0.249023 1.484375 s-0.196943 1.153975 -0.307617 1.791992 s-0.219727 1.276035 -0.327148 1.914053 s-0.211592 1.256504 -0.3125 1.855459 s-0.192051 1.139316 -0.273428 1.621084 s-0.149736 0.880527 -0.205078 1.196279 s-0.086269 0.512695 -0.092783 0.59082 c0 0.058594 -0.013018 0.120439 -0.039062 0.185547 c-0.019531 0.05208 -0.047197 0.109043 -0.083008 0.170889 s-0.083008 0.12207 -0.141602 0.180664 l-0.15625 0.058594 l-0.136719 0 c-0.045576 -0.019531 -0.071621 -0.053711 -0.078135 -0.102539 s-0.042324 -0.092773 -0.107432 -0.131836 c-0.039062 -0.032549 -0.081377 -0.056963 -0.126953 -0.073242 s-0.087891 -0.060225 -0.126953 -0.131836 c0 -0.045576 -0.006514 -0.081387 -0.019531 -0.107432 c-0.006514 -0.013018 -0.013027 -0.022783 -0.019541 -0.029297 s-0.016279 -0.019531 -0.029297 -0.039062 s-0.05208 -0.061846 -0.117187 -0.126953 c-0.039062 -0.078125 -0.066729 -0.164385 -0.083008 -0.258789 s-0.008144 -0.213223 0.024404 -0.356455 c0.013018 -0.045576 0.039063 -0.164395 0.078125 -0.356455 s0.08626 -0.426436 0.141602 -0.703125 s0.115566 -0.582676 0.180674 -0.917959 s0.130215 -0.675449 0.195322 -1.020498 s0.125332 -0.67708 0.180674 -0.996094 s0.102539 -0.602217 0.141602 -0.849609 c0.039063 -0.214844 0.102539 -0.519209 0.19043 -0.913086 s0.19043 -0.831699 0.307617 -1.313467 s0.24251 -0.986328 0.375977 -1.513672 s0.262051 -1.036787 0.385752 -1.52832 s0.236006 -0.944004 0.336914 -1.357412 s0.177402 -0.743809 0.229482 -0.991201 c-0.013018 -0.032549 -0.022783 -0.065098 -0.029297 -0.097647 s-0.009766 -0.065098 -0.009766 -0.097647 c-0.026045 -0.065107 -0.021162 -0.100918 0.014648 -0.107432 s0.063477 -0.019531 0.083008 -0.039062 c0 -0.013018 0.003252 -0.022783 0.009766 -0.029297 s0.009766 -0.016279 0.009766 -0.029297 c0 -0.039062 0.006514 -0.058594 0.019531 -0.058594 c0 -0.084639 0.013018 -0.13998 0.039063 -0.166025 s0.053711 -0.042324 0.083008 -0.048838 s0.056963 -0.009766 0.083008 -0.009766 s0.042324 -0.019531 0.048838 -0.058594 c0.013018 -0.084639 0.027666 -0.141602 0.043945 -0.170898 s0.03581 -0.042315 0.058594 -0.039062 s0.053711 0.01627 0.092773 0.039053 s0.087891 0.047197 0.146484 0.073242 c0.032549 0.013018 0.060215 0.0179 0.082998 0.014648 s0.047197 -0.003252 0.073242 0 s0.056972 0.011387 0.092783 0.024404 s0.079756 0.039063 0.131836 0.078125 c0.039063 0.032549 0.073242 0.048828 0.102539 0.048828 s0.055342 -0.009766 0.078125 -0.029297 s0.042315 -0.042315 0.058594 -0.068359 s0.030928 -0.048828 0.043945 -0.068359 c0.019531 -0.032549 0.048828 -0.048828 0.087891 -0.048828 s0.074873 0.016279 0.107422 0.048828 c0.039063 0.05208 0.06999 0.087891 0.092773 0.107422 s0.039063 0.03418 0.048828 0.043945 s0.014648 0.016279 0.014648 0.019531 s0.003252 0.014648 0.009766 0.03418 c0.097656 0.292969 0.183916 0.598955 0.258789 0.917969 s0.152998 0.683594 0.234375 1.09375 s0.177402 0.883789 0.288076 1.420898 s0.250645 1.170244 0.419912 1.899414 c0.279951 1.236982 0.524092 2.277021 0.732422 3.120117 s0.384111 1.47623 0.527344 1.899404 c0.130205 -0.299482 0.288086 -0.664062 0.473633 -1.09375 s0.38249 -0.896807 0.59082 -1.401367 s0.426426 -1.028652 0.654287 -1.572275 s0.452471 -1.082363 0.673828 -1.616221 s0.43457 -1.044922 0.639648 -1.533203 s0.387373 -0.927734 0.546875 -1.318359 s0.29459 -0.719404 0.405264 -0.986328 s0.182285 -0.439453 0.214834 -0.517578 c0.039063 -0.091143 0.06999 -0.166016 0.092773 -0.224609 s0.050449 -0.10417 0.082998 -0.136719 c0.019531 -0.05208 0.047197 -0.089512 0.083008 -0.112295 s0.076504 -0.024414 0.12208 -0.004883 c0.013018 0.013018 0.029297 0.022783 0.048828 0.029297 c0.013018 0.013018 0.027666 0.021153 0.043945 0.024404 s0.030928 0.011387 0.043945 0.024404 c0.006514 -0.032549 0.019531 -0.050449 0.039063 -0.053701 s0.042315 -0.004883 0.068359 -0.004883 c0.026045 0.006514 0.055342 0.013027 0.087891 0.019541 l0.029297 0 l0.039063 0 c0.019531 -0.013018 0.039063 -0.024414 0.058594 -0.03418 s0.039063 -0.004883 0.058594 0.014648 c0.058594 0.032549 0.099287 0.03418 0.12207 0.004883 s0.060215 -0.043945 0.112295 -0.043945 c0.032549 0 0.061846 -0.003252 0.087891 -0.009766 c0.019531 -0.006514 0.039063 -0.014648 0.058594 -0.024414 s0.032549 -0.024414 0.039063 -0.043945 c0.026045 0 0.047207 0.003252 0.063486 0.009766 s0.030928 0.013027 0.043945 0.019541 l0.029297 0.029297 c0.019531 0.026045 0.048828 0.13835 0.087891 0.336914 s0.083008 0.442705 0.131836 0.732422 s0.097656 0.603848 0.146484 0.942393 s0.092773 0.660811 0.131836 0.966797 c0.013018 0.10417 0.039063 0.333662 0.078125 0.688477 s0.084639 0.787754 0.136719 1.298818 s0.110674 1.079102 0.175781 1.704102 s0.130215 1.256514 0.195322 1.894531 s0.126953 1.261387 0.185547 1.870107 s0.109053 1.153965 0.151367 1.635732 s0.074863 0.877275 0.097647 1.186523 s0.030918 0.483398 0.024404 0.522461 z M26.220703 19.716797 c0 0.05208 -0.032578 0.079765 -0.097685 0.083017 s-0.133467 0.004883 -0.205078 0.004883 l-0.097656 0.019531 c-0.032549 0.013018 -0.066729 0.024414 -0.102539 0.03418 s-0.06999 0.030928 -0.102539 0.063477 c0.013018 0.065107 0.0179 0.115566 0.014648 0.151377 s-0.004883 0.063477 -0.004883 0.083008 l-0.009766 0.039063 c-0.019531 0.026045 -0.058594 0.047207 -0.117187 0.063486 s-0.120439 0.024414 -0.185547 0.024414 c-0.013018 0 -0.032549 -0.003252 -0.058594 -0.009766 c-0.045576 -0.013018 -0.091152 -0.045567 -0.136729 -0.097647 c-0.110674 -0.032549 -0.240879 -0.065098 -0.390615 -0.097647 c-0.078125 -0.019531 -0.162764 -0.039062 -0.253906 -0.058594 c-0.071611 -0.019531 -0.133457 -0.071611 -0.185537 -0.15625 s-0.099277 -0.183926 -0.141592 -0.297861 s-0.081377 -0.231123 -0.117187 -0.351562 s-0.066738 -0.22623 -0.092783 -0.317373 l-0.957031 -3.017578 c-0.143232 0 -0.323896 0.001631 -0.541992 0.004883 s-0.45084 0.006504 -0.698232 0.009756 s-0.498047 0.009766 -0.751953 0.019531 s-0.485029 0.0179 -0.693359 0.024414 l-1.953125 0.097656 l-1.142578 2.988281 c-0.019531 0.032549 -0.047197 0.097656 -0.083008 0.195313 s-0.073242 0.200195 -0.112305 0.307617 s-0.074873 0.20833 -0.107422 0.302734 s-0.05208 0.151367 -0.058594 0.170898 c-0.013018 0.05208 -0.05208 0.084629 -0.117187 0.097647 s-0.120449 0.026035 -0.166025 0.039053 c-0.039062 0.013018 -0.071611 0.048828 -0.097656 0.107422 s-0.065107 0.097656 -0.117187 0.117188 c-0.05208 0.032549 -0.117187 0.035801 -0.195312 0.009756 s-0.146484 -0.068359 -0.205078 -0.126953 c-0.05208 -0.065107 -0.071611 -0.148115 -0.058594 -0.249023 s0.019531 -0.206699 0.019531 -0.317373 s-0.001631 -0.214844 -0.004883 -0.3125 s0.011396 -0.192061 0.043945 -0.283203 l0.12207 -0.366211 l0.258789 -0.742187 l0.341797 -0.947266 l0.380859 -0.991211 c-0.117187 0 -0.198564 -0.032549 -0.244141 -0.097656 c-0.032549 -0.05208 -0.071611 -0.083008 -0.117187 -0.092773 s-0.094404 -0.024414 -0.146484 -0.043945 c-0.05208 -0.013018 -0.087891 -0.042315 -0.107422 -0.087891 s-0.022783 -0.084639 -0.009766 -0.117187 c0.013018 -0.039062 0.003252 -0.071611 -0.029297 -0.097656 s-0.048828 -0.084639 -0.048828 -0.175781 c0 -0.039062 0.030928 -0.076494 0.092773 -0.112305 s0.13834 -0.066738 0.229482 -0.092783 s0.193682 -0.048828 0.307617 -0.068359 s0.222988 -0.03581 0.327158 -0.048828 l0.073242 0 l0.092773 -0.019531 c0.143232 -0.345049 0.305996 -0.717773 0.488291 -1.118164 s0.369473 -0.808916 0.561533 -1.225586 s0.385742 -0.83334 0.581055 -1.25001 s0.380859 -0.808926 0.556641 -1.176768 s0.336914 -0.704756 0.483398 -1.010742 s0.268555 -0.559893 0.366211 -0.761719 c-0.078125 -0.240889 -0.148115 -0.462246 -0.209961 -0.664072 s-0.115557 -0.377607 -0.161133 -0.527344 s-0.081387 -0.268555 -0.107432 -0.356445 s-0.039062 -0.13835 -0.039062 -0.151367 c-0.006514 -0.013018 -0.006514 -0.026035 0 -0.039053 c0.013018 -0.032549 0.045567 -0.05208 0.097647 -0.058594 c-0.05208 -0.097656 -0.078125 -0.169268 -0.078125 -0.214844 c0 -0.026045 0.006514 -0.042324 0.019531 -0.048838 c0.013018 -0.013018 0.045567 -0.026035 0.097647 -0.039053 s0.107422 -0.024414 0.166016 -0.03418 s0.113936 -0.016279 0.166016 -0.019531 s0.087891 -0.004883 0.107422 -0.004883 c0.006514 0 0.022793 0.003252 0.048838 0.009766 c0.039063 0.013018 0.094404 0.042315 0.166016 0.087891 c0.006514 -0.032549 0.014648 -0.055332 0.024414 -0.06835 s0.021162 -0.026035 0.03418 -0.039053 l0.029297 -0.029297 c0.039063 -0.019531 0.081377 -0.024414 0.126953 -0.014648 s0.087891 0.014648 0.126953 0.014648 s0.066729 -0.016279 0.083008 -0.048828 s0.056972 -0.048828 0.12208 -0.048828 c0.084639 0 0.15625 0.091143 0.214844 0.273438 c0.006514 0.032549 0.05209 0.154619 0.136729 0.366211 s0.192061 0.488281 0.322266 0.830078 s0.281572 0.737305 0.454102 1.186523 s0.353193 0.926104 0.541992 1.430664 s0.379229 1.025391 0.571289 1.5625 s0.375977 1.066084 0.551758 1.586914 c0.36458 1.061201 0.670566 1.956387 0.917959 2.685557 s0.447588 1.324873 0.600586 1.787109 s0.266934 0.807285 0.341807 1.035146 s0.12207 0.36458 0.141602 0.410156 c0.032549 0.10417 0.058594 0.187178 0.078125 0.249023 s0.029297 0.118809 0.029297 0.170889 z M22.01169 13.037129 c-0.169268 -0.481768 -0.353174 -1.022129 -0.551738 -1.621084 s-0.392246 -1.191406 -0.581045 -1.777344 c-0.110674 0.286455 -0.244141 0.631504 -0.400391 1.035146 s-0.320635 0.820313 -0.493164 1.25 s-0.340176 0.849609 -0.502939 1.259766 s-0.305996 0.761719 -0.429697 1.054688 l-0.273437 0.644531 l1.757813 -0.107422 c0.149736 0 0.32877 -0.003252 0.5371 -0.009766 c0.351563 -0.006514 0.859375 -0.016279 1.523438 -0.029297 z M30.048828 12.255859 c0.455732 -0.05208 0.929308 -0.097618 1.42084 -0.136681 s0.952148 -0.058594 1.381836 -0.058594 c0.130205 -0.006514 0.279941 -0.013027 0.449209 -0.019541 c0.143232 -0.006514 0.310879 -0.011396 0.502939 -0.014648 s0.402021 -0.004883 0.629883 -0.004883 c0.240889 0 0.496426 0.003252 0.766611 0.009766 s0.541992 0.016279 0.81543 0.029297 c0.026045 -0.390625 0.05209 -0.794268 0.078135 -1.210937 s0.050459 -0.818691 0.073242 -1.206064 s0.042315 -0.745449 0.058594 -1.074229 s0.030928 -0.603848 0.043945 -0.825205 l0 -0.664062 l0 -0.541992 l0.019531 -0.43457 c0.045576 -0.214844 0.13998 -0.322266 0.283213 -0.322266 c0.084639 0 0.149746 0.009766 0.195322 0.029297 s0.126953 0.055342 0.244141 0.107422 c0.058594 0.019531 0.12207 0.045576 0.19043 0.078125 s0.135088 0.066729 0.200195 0.102539 s0.123701 0.071621 0.175781 0.107432 s0.091143 0.066738 0.117188 0.092783 s0.058594 0.06999 0.097656 0.131836 s0.078125 0.128574 0.117188 0.200186 s0.071611 0.144854 0.097656 0.219727 s0.03581 0.13835 0.029297 0.19043 s-0.022793 0.24251 -0.048838 0.571289 s-0.058594 0.761719 -0.097656 1.298828 s-0.081377 1.160479 -0.126953 1.870117 s-0.087891 1.468105 -0.126953 2.2754 c-0.058594 1.30208 -0.087891 2.382813 -0.087891 3.242188 c0 0.644531 0.011396 1.165361 0.03418 1.5625 s0.053711 0.67709 0.092773 0.839854 c0.058594 0.273438 0.100908 0.46875 0.126953 0.585938 s0.022793 0.195313 -0.009756 0.234375 c-0.013018 0.013018 -0.032549 0.026035 -0.058594 0.039053 c-0.065107 0.026045 -0.172529 0.05209 -0.322266 0.078135 c-0.026045 0.071611 -0.05209 0.128574 -0.078135 0.170889 s-0.05209 0.076494 -0.078135 0.102539 s-0.05209 0.048828 -0.078135 0.068359 c-0.065107 0.019531 -0.126953 0.039063 -0.185547 0.058594 s-0.10417 0.013018 -0.136719 -0.019531 c-0.019531 -0.006514 -0.03581 -0.016279 -0.048828 -0.029297 c-0.026045 -0.013018 -0.048828 -0.048828 -0.068359 -0.107422 c-0.065107 0.026045 -0.123701 0.026045 -0.175781 0 c-0.026045 -0.013018 -0.048828 -0.026035 -0.068359 -0.039053 c-0.05208 -0.045576 -0.126953 -0.126953 -0.224609 -0.244141 s-0.162764 -0.276689 -0.195312 -0.478516 c-0.013018 -0.097656 -0.03418 -0.203447 -0.063477 -0.317383 s-0.058594 -0.231123 -0.087891 -0.351562 s-0.058594 -0.237627 -0.087891 -0.351562 s-0.050459 -0.219727 -0.063477 -0.317383 c-0.019531 -0.091143 -0.027666 -0.283203 -0.024414 -0.576172 s0.013018 -0.634766 0.029297 -1.025391 s0.037441 -0.807295 0.063486 -1.25 s0.05209 -0.859375 0.078135 -1.25 l0 -0.166016 l0.019531 -0.195312 c-0.292969 -0.013018 -0.581055 -0.019531 -0.864258 -0.019531 l-0.81543 0 c-0.325518 0 -0.621738 0.001631 -0.888662 0.004883 s-0.501299 0.008135 -0.703125 0.014648 c-0.234375 0.006514 -0.445967 0.013027 -0.634766 0.019541 c-0.690107 0 -1.357422 0.019531 -2.001953 0.058594 c-0.006514 0.097656 -0.011396 0.182295 -0.014648 0.253906 s-0.004883 0.133457 -0.004883 0.185537 l0 0.146484 c-0.013018 0.638018 -0.026035 1.25 -0.039053 1.835938 s-0.022783 1.110029 -0.029297 1.572266 s-0.011396 0.846348 -0.014648 1.152334 s-0.001621 0.498047 0.004892 0.576172 c0 0.065107 -0.003252 0.133467 -0.009766 0.205078 c-0.006514 0.065107 -0.01791 0.141602 -0.034189 0.229492 s-0.040693 0.183916 -0.073242 0.288086 c-0.065107 0.006514 -0.126953 0.029297 -0.185547 0.068359 c-0.026045 0.019531 -0.05209 0.03581 -0.078135 0.048828 c-0.058594 0.039063 -0.112305 0.083008 -0.161133 0.131836 s-0.092773 0.056963 -0.131836 0.024414 c-0.05208 -0.039062 -0.115557 -0.065107 -0.19043 -0.078125 s-0.167646 -0.019531 -0.27832 -0.019531 c-0.05208 0 -0.107422 -0.016279 -0.166016 -0.048828 s-0.113936 -0.069981 -0.166016 -0.112295 s-0.097656 -0.089512 -0.136719 -0.141592 s-0.061846 -0.097656 -0.068359 -0.136719 c-0.013018 -0.039062 -0.029297 -0.096025 -0.048828 -0.170898 s-0.037432 -0.152998 -0.053711 -0.234375 s-0.030928 -0.159502 -0.043945 -0.234375 s-0.022783 -0.128584 -0.029297 -0.161133 s-0.006514 -0.195312 0 -0.488281 s0.019531 -0.678711 0.039063 -1.157227 s0.042315 -1.028643 0.068359 -1.650391 s0.055342 -1.277676 0.087891 -1.967783 c-0.247393 0.026045 -0.455723 0.047207 -0.62499 0.063486 s-0.273437 0.030928 -0.3125 0.043945 c-0.071611 0.013018 -0.128574 0.027666 -0.170889 0.043945 s-0.078125 0.030928 -0.107422 0.043945 s-0.056963 0.021153 -0.083008 0.024404 s-0.05209 -0.001631 -0.078135 -0.014648 c-0.039062 0 -0.076494 -0.024414 -0.112305 -0.073242 s-0.060225 -0.105791 -0.073242 -0.170898 c-0.071611 -0.013018 -0.118809 -0.037432 -0.141592 -0.073242 s-0.040684 -0.063477 -0.053701 -0.083008 c0 -0.05208 0.024414 -0.089512 0.073242 -0.112295 s0.125322 -0.08626 0.229492 -0.19043 c0.045576 -0.045576 0.112305 -0.089521 0.200195 -0.131836 s0.180664 -0.083008 0.27832 -0.12207 s0.193682 -0.073242 0.288086 -0.102539 s0.177412 -0.050459 0.249023 -0.063477 l0.478516 -0.078125 c0.039063 -0.638018 0.078125 -1.220703 0.117188 -1.748047 s0.074873 -1.015625 0.107422 -1.464844 s0.060215 -0.86751 0.082998 -1.254883 s0.03418 -0.76335 0.03418 -1.12793 c0 -0.10417 -0.003252 -0.201826 -0.009766 -0.292969 s-0.009766 -0.188799 -0.009766 -0.292969 c0 -0.078125 0.021162 -0.144854 0.063477 -0.200195 s0.096025 -0.089521 0.161133 -0.102539 l0.117188 0 c0.071611 0 0.205078 0.009766 0.400391 0.029297 c0.026045 -0.065107 0.055342 -0.107422 0.087891 -0.126953 c0.019531 -0.013018 0.03581 -0.019531 0.048828 -0.019531 c0.05208 0 0.096025 0.011396 0.131836 0.03418 s0.060225 0.043945 0.073242 0.063477 c0 0.013018 0.003252 0.026035 0.009766 0.039053 l0.029297 0.087891 c0.05208 0.013018 0.091143 0.026035 0.117188 0.039053 s0.048828 0.026035 0.068359 0.039053 c0.019531 0.019531 0.03581 0.032549 0.048828 0.039063 l0.029297 0.058594 c0.019531 0.039063 0.039063 0.113936 0.058594 0.224609 c0.045576 0.097656 0.074873 0.166016 0.087891 0.205078 c0.006514 0.026045 0.009766 0.042324 0.009766 0.048838 c0 0.013018 0.003252 0.029297 0.009766 0.048828 c0 0.013018 0.001631 0.026035 0.004883 0.039053 s0.004883 0.026035 0.004883 0.039053 z M49.375 5.878906 c0.032549 0.227861 0.068369 0.540266 0.107432 0.937404 s0.076494 0.849609 0.112305 1.357422 s0.065107 1.061201 0.087891 1.660156 s0.03418 1.214189 0.03418 1.845703 c0 0.703125 -0.0179 1.411133 -0.053711 2.124023 s-0.094404 1.399736 -0.175781 2.060547 s-0.193682 1.279297 -0.336914 1.855469 s-0.322266 1.07585 -0.537109 1.499023 c-0.110674 0.214844 -0.266924 0.455732 -0.46875 0.722656 s-0.449219 0.507813 -0.742187 0.722656 s-0.631514 0.380859 -1.015625 0.498047 s-0.813799 0.136719 -1.289062 0.058594 c-0.338545 -0.058594 -0.649414 -0.185547 -0.932617 -0.380859 s-0.528975 -0.43457 -0.737305 -0.717773 s-0.371094 -0.595703 -0.488281 -0.9375 s-0.179033 -0.681963 -0.185547 -1.020508 c-0.006514 -0.384111 0.032549 -0.740557 0.117188 -1.069336 s0.187178 -0.620117 0.307617 -0.874023 s0.249023 -0.465498 0.385742 -0.634766 s0.253906 -0.289707 0.351563 -0.361318 c0.117188 -0.084639 0.200195 -0.133467 0.249023 -0.146484 s0.099287 -0.026035 0.151367 -0.039053 c0.065107 -0.013018 0.112305 -0.0179 0.141602 -0.014648 s0.048828 0.009766 0.058594 0.019531 s0.0179 0.022783 0.024414 0.039063 s0.022793 0.027676 0.048838 0.034189 c0.032549 0.013018 0.068359 0.019531 0.107422 0.019531 l0.102539 0 l0.058594 0.014648 l-0.024414 0.073242 c-0.013018 0.019531 -0.011387 0.032549 0.004892 0.039063 s0.039063 0.011396 0.068359 0.014648 s0.055342 0.011387 0.078125 0.024404 s0.030918 0.032549 0.024404 0.058594 c-0.013018 0.019531 -0.009766 0.047197 0.009766 0.083008 s0.045576 0.047207 0.078125 0.034189 c0.084639 -0.019531 0.123701 -0.024414 0.117188 -0.014648 s-0.039062 0.039063 -0.097656 0.087891 s-0.130205 0.115557 -0.214844 0.200195 s-0.159512 0.188809 -0.224619 0.31251 c-0.169268 0.332031 -0.296221 0.686846 -0.380859 1.064453 s-0.126953 0.748701 -0.126953 1.113281 c0 0.240889 0.0179 0.467129 0.053711 0.678721 s0.089521 0.39877 0.161133 0.561533 s0.161133 0.2946 0.268555 0.395508 s0.232744 0.161133 0.375977 0.180664 c0.332031 0.045576 0.631514 -0.040684 0.898438 -0.258779 s0.504551 -0.515947 0.712881 -0.893555 s0.390625 -0.810547 0.546875 -1.298828 s0.286455 -0.978193 0.390625 -1.469727 s0.183926 -0.963535 0.239268 -1.416006 s0.092773 -0.831699 0.112305 -1.137686 c0.026045 -0.429687 0.043945 -0.859375 0.053711 -1.289062 s0.014648 -0.856123 0.014648 -1.279297 c0 -0.755205 -0.013018 -1.47623 -0.039062 -2.163076 s-0.056972 -1.300449 -0.092783 -1.840811 s-0.073242 -0.984697 -0.112305 -1.333008 s-0.071611 -0.561523 -0.097656 -0.639648 c-0.013018 -0.032549 -0.014648 -0.058594 -0.004883 -0.078125 s0.029297 -0.03418 0.058594 -0.043945 s0.061846 -0.011396 0.097656 -0.004883 s0.06999 0.016279 0.102539 0.029297 c0.045576 0.013018 0.071621 -0.001631 0.078135 -0.043945 s0.029297 -0.073242 0.068359 -0.092773 c0.032549 -0.013018 0.065098 -0.006504 0.097647 0.019541 s0.058594 0.039063 0.078125 0.039063 c0.032549 0 0.060215 -0.013018 0.082998 -0.039062 s0.050449 -0.032558 0.082998 -0.019541 c0.019531 0.013018 0.040693 0.026035 0.063477 0.039053 s0.060215 0.013018 0.112295 0 c0.019531 -0.006514 0.03581 -0.021162 0.048828 -0.043945 s0.027666 -0.045567 0.043945 -0.06835 s0.032558 -0.037432 0.048838 -0.043945 s0.040693 0.003252 0.073242 0.029297 c0.045576 0.05208 0.079756 0.079746 0.102539 0.082998 s0.039063 -0.003262 0.048828 -0.019541 s0.0179 -0.03581 0.024414 -0.058594 s0.016279 -0.030918 0.029297 -0.024404 c0.084639 0.039063 0.144863 0.071611 0.180674 0.097656 s0.061855 0.074873 0.078135 0.146484 s0.030928 0.179033 0.043945 0.322266 s0.039063 0.348311 0.078125 0.615234 z M64.208985 11.601563 c0.006514 0.071611 0.009756 0.13999 0.009756 0.205098 l0 0.205078 c0 0.703125 -0.096025 1.425781 -0.288086 2.167969 s-0.463867 1.446943 -0.81543 2.114258 s-0.777998 1.272783 -1.279297 1.816406 s-1.061191 0.968428 -1.679678 1.274414 c-0.36458 0.175781 -0.758457 0.305986 -1.181631 0.390625 s-0.849609 0.126953 -1.279297 0.126953 c-0.3125 0 -0.620117 -0.022783 -0.922852 -0.068359 s-0.59082 -0.10417 -0.864258 -0.175781 c-0.611982 -0.175781 -1.160488 -0.447588 -1.645518 -0.81543 s-0.900068 -0.792646 -1.245117 -1.274414 s-0.616855 -1.000977 -0.81542 -1.557617 s-0.314121 -1.108398 -0.34667 -1.655273 c-0.006514 -0.078125 -0.011396 -0.15625 -0.014648 -0.234375 s-0.004883 -0.15625 -0.004883 -0.234375 c0 -0.605469 0.074873 -1.209307 0.224609 -1.811523 s0.353184 -1.178389 0.610342 -1.728516 s0.556641 -1.066074 0.898438 -1.547842 s0.706377 -0.904941 1.09375 -1.269521 s0.784512 -0.662432 1.191416 -0.893555 s0.805664 -0.375977 1.196289 -0.43457 c0.05208 -0.006514 0.08626 -0.011396 0.102539 -0.014648 s0.027676 -0.004883 0.034189 -0.004883 s0.013027 0.001631 0.019541 0.004883 s0.022793 0.001621 0.048838 -0.004892 c0.149736 -0.013018 0.257158 -0.01627 0.322266 -0.009756 s0.10417 0.016279 0.117188 0.029297 c0.013018 0.019531 0.011387 0.032549 -0.004892 0.039063 s-0.040693 0.019531 -0.073242 0.039063 c-0.013018 0 -0.027666 0.003252 -0.043945 0.009766 s-0.01791 0.016279 -0.004892 0.029297 c0.013018 0.032549 0 0.061846 -0.039062 0.087891 s-0.065107 0.045576 -0.078125 0.058594 s-0.01627 0.022783 -0.009756 0.029297 s0.011396 0.009766 0.014648 0.009766 s0.003252 0.003252 0 0.009766 s-0.0179 0.016279 -0.043945 0.029297 c-0.078125 0.05208 -0.161133 0.099277 -0.249023 0.141592 s-0.177412 0.092773 -0.268555 0.151367 c-0.46875 0.338545 -0.882158 0.774746 -1.240234 1.308604 s-0.657559 1.123047 -0.898447 1.767578 s-0.423184 1.323242 -0.546885 2.036133 s-0.185547 1.417646 -0.185547 2.114258 l0 0.268555 l0.009766 0.268555 c0.013018 0.279951 0.058594 0.585938 0.136719 0.917969 s0.183916 0.662432 0.317383 0.991211 s0.29623 0.646162 0.488291 0.952148 s0.411787 0.577793 0.65918 0.81542 s0.524082 0.429688 0.830068 0.576172 s0.64127 0.222979 1.00585 0.229492 c0.546875 0.019531 1.038408 -0.068359 1.474609 -0.263672 s0.821943 -0.457354 1.157227 -0.786133 s0.623369 -0.706387 0.864258 -1.132822 s0.441084 -0.865889 0.600586 -1.318359 s0.284824 -0.898437 0.375967 -1.337891 s0.152988 -0.834961 0.185537 -1.186523 c0.013018 -0.136719 0.022783 -0.275068 0.029297 -0.415039 s0.009766 -0.275059 0.009766 -0.405264 c0 -0.83333 -0.109053 -1.575518 -0.327148 -2.226562 s-0.507812 -1.201172 -0.869141 -1.650391 s-0.776367 -0.795898 -1.245117 -1.040039 s-0.953779 -0.375977 -1.455078 -0.395508 c-0.05208 -0.006514 -0.113926 -0.008144 -0.185537 -0.004892 s-0.144854 0.004883 -0.219727 0.004883 s-0.13998 0.001631 -0.195322 0.004883 s-0.089521 0.001621 -0.102539 -0.004892 c-0.084639 -0.039062 -0.136719 -0.068359 -0.15625 -0.087891 l-0.019531 -0.019531 c0 -0.05208 0.013018 -0.091143 0.039063 -0.117187 l0.097656 -0.048828 c0.032549 -0.013018 0.063477 -0.027666 0.092773 -0.043945 s0.053711 -0.030928 0.073242 -0.043945 c0.013018 -0.019531 0.009766 -0.03418 -0.009766 -0.043945 s-0.029297 -0.037432 -0.029297 -0.083008 c-0.013018 -0.032549 -0.003252 -0.063477 0.029297 -0.092773 s0.055332 -0.043945 0.06835 -0.043945 c0.058594 -0.019531 0.099287 -0.030928 0.12207 -0.03418 s0.053711 -0.004883 0.092773 -0.004883 c0.065107 -0.006514 0.118818 -0.014648 0.161133 -0.024414 s0.081377 -0.021162 0.117188 -0.03418 s0.076504 -0.024414 0.12208 -0.03418 s0.107422 -0.0179 0.185547 -0.024414 c0.058594 -0.013018 0.123701 -0.019531 0.195313 -0.019531 s0.179033 -0.006514 0.322266 -0.019531 c0.559893 -0.013018 1.072588 0.050459 1.538086 0.19043 s0.88542 0.340166 1.259766 0.600586 s0.701494 0.568037 0.981445 0.922852 s0.515957 0.738926 0.708018 1.152334 s0.341797 0.844727 0.449219 1.293945 s0.17415 0.895186 0.200195 1.337891 z M76.513672 6.298828 c0.013018 0.117188 0.019655 0.359611 0.019655 0.727453 s-0.004883 0.818691 -0.014648 1.352549 s-0.022783 1.129561 -0.039062 1.787109 s-0.037441 1.339512 -0.063486 2.045889 s-0.053711 1.416016 -0.083008 2.128906 s-0.060225 1.38835 -0.092773 2.026367 s-0.068359 1.219072 -0.107422 1.743164 s-0.078125 0.948896 -0.117187 1.274414 c0 0.039063 -0.0179 0.073242 -0.053711 0.102539 s-0.073242 0.079756 -0.112305 0.151367 c-0.039062 0.065107 -0.078125 0.100918 -0.117187 0.107432 s-0.071611 0.006514 -0.097656 0 s-0.045576 -0.006514 -0.058594 0 s-0.013018 0.039063 0 0.097656 c0.013018 0.039063 -0.008144 0.06999 -0.063486 0.092773 s-0.102539 0.0179 -0.141602 -0.014648 c-0.05208 -0.039062 -0.113926 -0.08626 -0.185537 -0.141602 s-0.117187 -0.083008 -0.136719 -0.083008 c-0.039062 -0.006514 -0.05208 0.009766 -0.039062 0.048828 s0.030918 0.081377 0.053701 0.126953 s0.039063 0.089521 0.048828 0.131836 s-0.011396 0.066729 -0.063477 0.073242 c-0.097656 0.013018 -0.209961 -0.009766 -0.336914 -0.068359 s-0.245771 -0.126953 -0.356445 -0.205078 c-0.091143 -0.071611 -0.227861 -0.231113 -0.410156 -0.478506 s-0.39877 -0.561523 -0.649424 -0.942383 s-0.527344 -0.81543 -0.830078 -1.303711 s-0.616865 -1.009111 -0.942383 -1.5625 s-0.657549 -1.126309 -0.996094 -1.71876 s-0.667324 -1.183271 -0.986338 -1.772461 s-0.625 -1.16373 -0.917969 -1.723623 s-0.556641 -1.080723 -0.791016 -1.56249 c-0.026045 0.273438 -0.048828 0.646162 -0.068359 1.118164 s-0.037432 0.996094 -0.053711 1.572266 s-0.030928 1.183271 -0.043945 1.821289 s-0.024414 1.26627 -0.03418 1.884756 s-0.0179 1.204424 -0.024414 1.757813 s-0.013027 1.028652 -0.019541 1.425791 c0 0.26042 -0.004883 0.444336 -0.014648 0.551758 s-0.019531 0.180664 -0.029297 0.219727 s-0.019531 0.066729 -0.029297 0.083008 s-0.011396 0.063477 -0.004883 0.141602 c0 0.20833 -0.013018 0.39876 -0.039062 0.571289 s-0.084639 0.268555 -0.175781 0.288086 c-0.05208 0.026045 -0.100908 0.01791 -0.146484 -0.024404 s-0.10417 -0.053711 -0.175781 -0.03418 c-0.019531 0 -0.043945 0.0179 -0.073242 0.053711 s-0.079756 0.053711 -0.151367 0.053711 c-0.058594 0 -0.130205 -0.026045 -0.214844 -0.078125 s-0.13998 -0.146484 -0.166025 -0.283203 l-0.039062 -0.361328 c-0.006514 -0.039062 -0.014648 -0.065107 -0.024414 -0.078125 s-0.019531 -0.032549 -0.029297 -0.058594 s-0.0179 -0.06999 -0.024414 -0.131836 s-0.013027 -0.167637 -0.019541 -0.317373 c0 -0.039062 0.006514 -0.222979 0.019531 -0.551758 s0.030918 -0.753584 0.053701 -1.274414 s0.048828 -1.113281 0.078125 -1.777344 s0.061846 -1.350908 0.097656 -2.060547 s0.071621 -1.416016 0.107432 -2.119141 s0.074873 -1.35417 0.117188 -1.953125 s0.083008 -1.121416 0.12207 -1.567383 s0.074873 -0.76335 0.107422 -0.952148 c-0.032549 -0.078125 -0.056963 -0.152998 -0.073242 -0.224609 s-0.024414 -0.136719 -0.024414 -0.195312 c-0.006514 -0.039062 -0.001631 -0.065107 0.014648 -0.078125 s0.039063 -0.024414 0.068359 -0.03418 s0.060225 -0.021162 0.092773 -0.03418 s0.065098 -0.039062 0.097647 -0.078125 c0.013018 -0.019531 0.024414 -0.066729 0.03418 -0.141602 s0.030928 -0.112305 0.063477 -0.112305 c0.091143 0 0.166016 -0.021162 0.224609 -0.063477 s0.139971 -0.069981 0.244141 -0.082998 c0 -0.110674 0.029297 -0.182285 0.087891 -0.214834 c0.026045 -0.019531 0.055342 -0.026045 0.087891 -0.019531 c0.110674 0.013018 0.196934 0.056963 0.258779 0.131836 s0.109043 0.144863 0.141592 0.209971 c0.032549 0.078125 0.058594 0.136719 0.078125 0.175781 s0.045576 0.094404 0.078125 0.166016 c0.045576 0.071611 0.135098 0.224609 0.268564 0.458984 s0.297852 0.527344 0.493164 0.878906 s0.41667 0.74707 0.664063 1.186523 s0.506182 0.904951 0.776367 1.396484 s0.548506 0.992832 0.834961 1.503896 s0.566406 1.010742 0.839844 1.499023 s0.533857 0.953779 0.78125 1.396484 s0.472002 0.841465 0.673828 1.196279 s0.371094 0.651035 0.507813 0.888662 s0.231123 0.395508 0.283203 0.473633 c0.130205 0.188799 0.221348 0.29459 0.273428 0.317373 s0.113926 -0.037441 0.185537 -0.180674 c0.032549 -0.065107 0.063477 -0.216475 0.092773 -0.454102 s0.058594 -0.53873 0.087891 -0.903311 s0.055342 -0.777988 0.078125 -1.240225 s0.043945 -0.947266 0.063477 -1.455078 s0.03581 -1.028643 0.048828 -1.5625 s0.021153 -1.051436 0.024404 -1.552734 s0.003252 -0.973301 0 -1.416006 s-0.014648 -0.83333 -0.03418 -1.171875 c-0.006514 -0.182295 -0.009766 -0.345059 -0.009766 -0.488291 c0 -0.123701 0.006514 -0.237637 0.019531 -0.341807 s0.035801 -0.15625 0.06835 -0.15625 c0.045576 -0.032549 0.086269 -0.053711 0.12208 -0.063477 s0.065107 -0.013018 0.087891 -0.009766 s0.043945 0.008135 0.063477 0.014648 s0.03581 0.006514 0.048828 0 s0.019531 -0.016279 0.019531 -0.029297 s0.001631 -0.029297 0.004883 -0.048828 s0.011387 -0.040693 0.024404 -0.063477 s0.042315 -0.040684 0.087891 -0.053701 c0.05208 -0.019531 0.092773 -0.030928 0.12207 -0.03418 s0.053711 -0.001621 0.073242 0.004892 s0.03581 0.013027 0.048828 0.019541 s0.032549 0.003262 0.058594 -0.009756 c0.05208 -0.026045 0.094395 -0.050459 0.126943 -0.073242 s0.061846 -0.030918 0.087891 -0.024404 s0.047207 0.03418 0.063486 0.083008 s0.030928 0.131836 0.043945 0.249023 z M85.693359 6.699219 c-0.214844 0 -0.489836 0.039091 -0.825119 0.117216 s-0.691729 0.214844 -1.069336 0.410156 s-0.755215 0.454102 -1.132822 0.776367 s-0.717773 0.727539 -1.020508 1.21582 s-0.550127 1.066084 -0.742187 1.733398 s-0.288086 1.443682 -0.288086 2.329102 c0 0.716143 0.073242 1.352539 0.219727 1.90918 s0.343428 1.043291 0.59082 1.459961 s0.532227 0.769863 0.854492 1.05958 s0.660811 0.524092 1.015625 0.703125 s0.709629 0.307617 1.064443 0.385742 s0.691729 0.117188 1.010742 0.117188 l0.209961 0 l0.209961 -0.019531 c0.136719 -0.039062 0.297852 -0.091143 0.483398 -0.15625 s0.379229 -0.152998 0.581055 -0.263672 s0.400391 -0.247393 0.595703 -0.410156 s0.372725 -0.359707 0.532227 -0.59083 s0.291338 -0.496426 0.395508 -0.795908 s0.162764 -0.644531 0.175781 -1.035156 c0.006514 -0.358076 -0.03418 -0.636396 -0.12207 -0.834961 s-0.180664 -0.349932 -0.27832 -0.454102 l-0.546875 0.068359 c-0.286455 0.039063 -0.579424 0.094404 -0.878906 0.166016 s-0.582686 0.143223 -0.849609 0.214834 s-0.507812 0.133457 -0.722656 0.185537 s-0.384111 0.074863 -0.507812 0.06835 c-0.097656 -0.006514 -0.188799 -0.022793 -0.273437 -0.048838 c-0.078125 -0.019531 -0.157881 -0.050459 -0.239258 -0.092773 s-0.148105 -0.102539 -0.200186 -0.180664 c-0.032549 0.019531 -0.058594 0.029297 -0.078125 0.029297 s-0.03581 -0.003252 -0.048828 -0.009766 c-0.019531 -0.006514 -0.032549 -0.019531 -0.039062 -0.039062 s-0.013027 -0.042315 -0.019541 -0.068359 c-0.013018 -0.065107 -0.019531 -0.152998 -0.019531 -0.263672 c-0.032549 0 -0.068359 -0.013018 -0.107422 -0.039062 c-0.019531 -0.013018 -0.03581 -0.029297 -0.048828 -0.048828 c-0.032549 -0.05208 -0.061846 -0.10416 -0.087891 -0.15624 s-0.022793 -0.097656 0.009756 -0.136719 c0.013018 -0.026045 0.068359 -0.066738 0.166016 -0.12208 s0.263672 -0.12207 0.498047 -0.200195 s0.551758 -0.167646 0.952148 -0.268555 s0.913086 -0.213213 1.538086 -0.336914 c0.807295 -0.149736 1.507168 -0.250645 2.099619 -0.302725 s1.074219 -0.078125 1.445313 -0.078125 c0.20833 0 0.377598 0.004883 0.507803 0.014648 s0.227861 0.021162 0.292969 0.03418 c0.149736 0.032549 0.270176 0.079746 0.361318 0.141592 s0.162754 0.118809 0.214834 0.170889 c0.026045 0.026045 0.05209 0.058594 0.078135 0.097656 c0.045576 0.058594 0.100918 0.166016 0.166025 0.322266 c0.071611 0.026045 0.120439 0.065107 0.146484 0.117188 c0.013018 0.026045 0.01627 0.048828 0.009756 0.068359 c-0.013018 0.058594 -0.029297 0.136719 -0.048828 0.234375 s-0.048828 0.146484 -0.087891 0.146484 c-0.019531 0.006514 -0.08626 0.013027 -0.200195 0.019541 s-0.265303 0.016279 -0.454102 0.029297 s-0.405273 0.027666 -0.649414 0.043945 s-0.50293 0.037441 -0.776367 0.063486 c0.130205 0.149736 0.240879 0.32877 0.332021 0.5371 s0.152988 0.436191 0.185537 0.683584 c0.045576 0.319014 0.014648 0.657559 -0.092773 1.015635 s-0.273437 0.712891 -0.498047 1.064453 s-0.506182 0.688477 -0.844727 1.010742 s-0.717773 0.605469 -1.137695 0.849609 s-0.877275 0.437822 -1.37207 0.581055 s-1.012373 0.214844 -1.552734 0.214844 c-0.3125 0 -0.639648 -0.022783 -0.981445 -0.068359 s-0.691729 -0.125332 -1.049805 -0.239268 s-0.721035 -0.265303 -1.088877 -0.454102 s-0.734053 -0.426426 -1.098633 -0.712881 c-0.696611 -0.540361 -1.214189 -1.238604 -1.552734 -2.094727 s-0.501309 -1.905928 -0.488291 -3.149414 c0 -0.527344 0.08626 -1.074219 0.258789 -1.640625 s0.41667 -1.121416 0.732422 -1.665039 s0.693359 -1.061201 1.132813 -1.552734 s0.927734 -0.926104 1.464844 -1.303711 s1.116533 -0.681973 1.738281 -0.913096 s1.271162 -0.359707 1.948242 -0.385752 c0.214844 0 0.463867 0.016279 0.74707 0.048828 s0.576172 0.08626 0.878906 0.161133 s0.600586 0.170898 0.893555 0.288086 s0.561523 0.26042 0.805664 0.429688 s0.447588 0.366211 0.610352 0.59082 s0.263672 0.480146 0.302734 0.766602 c0.045576 0.332031 0.024414 0.631514 -0.063477 0.898438 s-0.20833 0.491533 -0.361328 0.673828 s-0.317383 0.320645 -0.493164 0.415049 s-0.328779 0.13835 -0.458984 0.131836 c-0.091143 0.058594 -0.169268 0.100908 -0.234375 0.126953 s-0.123701 0.042324 -0.175781 0.048838 c-0.058594 0.013018 -0.107422 0.013018 -0.146484 0 c-0.045576 -0.019531 -0.081387 -0.045576 -0.107432 -0.078125 s-0.043945 -0.069981 -0.053711 -0.112295 s0.001631 -0.099277 0.03418 -0.170889 c-0.143232 0.15625 -0.262051 0.270186 -0.356455 0.341797 s-0.170898 0.120439 -0.229492 0.146484 c-0.071611 0.026045 -0.126953 0.032558 -0.166016 0.019541 c-0.058594 -0.039062 -0.06999 -0.074873 -0.03418 -0.107422 s0.096035 -0.081377 0.180674 -0.146484 s0.182295 -0.154629 0.292969 -0.268564 s0.20833 -0.268555 0.292969 -0.463867 c0.039063 -0.136719 0.076494 -0.292969 0.112305 -0.46875 s0.053711 -0.358076 0.053711 -0.546875 c0 -0.358076 -0.065107 -0.664062 -0.195312 -0.917969 s-0.304355 -0.462236 -0.522451 -0.625 s-0.473633 -0.279951 -0.766602 -0.351562 s-0.605469 -0.107422 -0.9375 -0.107422 z M99.853516 6.699219 c-0.214844 0 -0.489836 0.039091 -0.825119 0.117216 s-0.691729 0.214844 -1.069336 0.410156 s-0.755215 0.454102 -1.132822 0.776367 s-0.717773 0.727539 -1.020508 1.21582 s-0.550127 1.066084 -0.742187 1.733398 s-0.288086 1.443682 -0.288086 2.329102 c0 0.716143 0.073242 1.352539 0.219727 1.90918 s0.343428 1.043291 0.59082 1.459961 s0.532227 0.769863 0.854492 1.05958 s0.660811 0.524092 1.015625 0.703125 s0.709629 0.307617 1.064443 0.385742 s0.691729 0.117188 1.010742 0.117188 l0.209961 0 l0.209961 -0.019531 c0.136719 -0.039062 0.297852 -0.091143 0.483398 -0.15625 s0.379229 -0.152998 0.581055 -0.263672 s0.400391 -0.247393 0.595703 -0.410156 s0.372725 -0.359707 0.532227 -0.59083 s0.291338 -0.496426 0.395508 -0.795908 s0.162764 -0.644531 0.175781 -1.035156 c0.006514 -0.358076 -0.03418 -0.636396 -0.12207 -0.834961 s-0.180664 -0.349932 -0.27832 -0.454102 l-0.546875 0.068359 c-0.286455 0.039063 -0.579424 0.094404 -0.878906 0.166016 s-0.582686 0.143223 -0.849609 0.214834 s-0.507812 0.133457 -0.722656 0.185537 s-0.384111 0.074863 -0.507812 0.06835 c-0.097656 -0.006514 -0.188799 -0.022793 -0.273437 -0.048838 c-0.078125 -0.019531 -0.157881 -0.050459 -0.239258 -0.092773 s-0.148105 -0.102539 -0.200186 -0.180664 c-0.032549 0.019531 -0.058594 0.029297 -0.078125 0.029297 s-0.03581 -0.003252 -0.048828 -0.009766 c-0.019531 -0.006514 -0.032549 -0.019531 -0.039062 -0.039062 s-0.013027 -0.042315 -0.019541 -0.068359 c-0.013018 -0.065107 -0.019531 -0.152998 -0.019531 -0.263672 c-0.032549 0 -0.068359 -0.013018 -0.107422 -0.039062 c-0.019531 -0.013018 -0.03581 -0.029297 -0.048828 -0.048828 c-0.032549 -0.05208 -0.061846 -0.10416 -0.087891 -0.15624 s-0.022793 -0.097656 0.009756 -0.136719 c0.013018 -0.026045 0.068359 -0.066738 0.166016 -0.12208 s0.263672 -0.12207 0.498047 -0.200195 s0.551758 -0.167646 0.952148 -0.268555 s0.913086 -0.213213 1.538086 -0.336914 c0.807295 -0.149736 1.507168 -0.250645 2.099619 -0.302725 s1.074219 -0.078125 1.445313 -0.078125 c0.20833 0 0.377598 0.004883 0.507803 0.014648 s0.227861 0.021162 0.292969 0.03418 c0.149736 0.032549 0.270176 0.079746 0.361318 0.141592 s0.162754 0.118809 0.214834 0.170889 c0.026045 0.026045 0.05209 0.058594 0.078135 0.097656 c0.045576 0.058594 0.100918 0.166016 0.166025 0.322266 c0.071611 0.026045 0.120439 0.065107 0.146484 0.117188 c0.013018 0.026045 0.01627 0.048828 0.009756 0.068359 c-0.013018 0.058594 -0.029297 0.136719 -0.048828 0.234375 s-0.048828 0.146484 -0.087891 0.146484 c-0.019531 0.006514 -0.08626 0.013027 -0.200195 0.019541 s-0.265303 0.016279 -0.454102 0.029297 s-0.405273 0.027666 -0.649414 0.043945 s-0.50293 0.037441 -0.776367 0.063486 c0.130205 0.149736 0.240879 0.32877 0.332021 0.5371 s0.152988 0.436191 0.185537 0.683584 c0.045576 0.319014 0.014648 0.657559 -0.092773 1.015635 s-0.273437 0.712891 -0.498047 1.064453 s-0.506182 0.688477 -0.844727 1.010742 s-0.717773 0.605469 -1.137695 0.849609 s-0.877275 0.437822 -1.37207 0.581055 s-1.012373 0.214844 -1.552734 0.214844 c-0.3125 0 -0.639648 -0.022783 -0.981445 -0.068359 s-0.691729 -0.125332 -1.049805 -0.239268 s-0.721035 -0.265303 -1.088877 -0.454102 s-0.734053 -0.426426 -1.098633 -0.712881 c-0.696611 -0.540361 -1.214189 -1.238604 -1.552734 -2.094727 s-0.501309 -1.905928 -0.488291 -3.149414 c0 -0.527344 0.08626 -1.074219 0.258789 -1.640625 s0.41667 -1.121416 0.732422 -1.665039 s0.693359 -1.061201 1.132813 -1.552734 s0.927734 -0.926104 1.464844 -1.303711 s1.116533 -0.681973 1.738281 -0.913096 s1.271162 -0.359707 1.948242 -0.385752 c0.214844 0 0.463867 0.016279 0.74707 0.048828 s0.576172 0.08626 0.878906 0.161133 s0.600586 0.170898 0.893555 0.288086 s0.561523 0.26042 0.805664 0.429688 s0.447588 0.366211 0.610352 0.59082 s0.263672 0.480146 0.302734 0.766602 c0.045576 0.332031 0.024414 0.631514 -0.063477 0.898438 s-0.20833 0.491533 -0.361328 0.673828 s-0.317383 0.320645 -0.493164 0.415049 s-0.328779 0.13835 -0.458984 0.131836 c-0.091143 0.058594 -0.169268 0.100908 -0.234375 0.126953 s-0.123701 0.042324 -0.175781 0.048838 c-0.058594 0.013018 -0.107422 0.013018 -0.146484 0 c-0.045576 -0.019531 -0.081387 -0.045576 -0.107432 -0.078125 s-0.043945 -0.069981 -0.053711 -0.112295 s0.001631 -0.099277 0.03418 -0.170889 c-0.143232 0.15625 -0.262051 0.270186 -0.356455 0.341797 s-0.170898 0.120439 -0.229492 0.146484 c-0.071611 0.026045 -0.126953 0.032558 -0.166016 0.019541 c-0.058594 -0.039062 -0.06999 -0.074873 -0.03418 -0.107422 s0.096035 -0.081377 0.180674 -0.146484 s0.182295 -0.154629 0.292969 -0.268564 s0.20833 -0.268555 0.292969 -0.463867 c0.039063 -0.136719 0.076494 -0.292969 0.112305 -0.46875 s0.053711 -0.358076 0.053711 -0.546875 c0 -0.358076 -0.065107 -0.664062 -0.195312 -0.917969 s-0.304355 -0.462236 -0.522451 -0.625 s-0.473633 -0.279951 -0.766602 -0.351562 s-0.605469 -0.107422 -0.9375 -0.107422 z"></path></g>
			</g>
		</svg>
	